# xmcd CD database file
#
# Track frame offsets:
#	150
#	20420
#	44880
#	68110
#	86635
#	106058
#	123798
#	148150
#	156845
#	173018
#
# Disc length: 2574 seconds
#
# Revision: 3
# Processed by: cddbd v1.5.1PL0 Copyright (c) Steve Scherf et al.
# Submitted via: CDex 1.51
#
DISCID=830a0c0a
DTITLE=坂本龍一 - 未来派野郎
DYEAR=1986
DGENRE=Pop
TTITLE0=Broadway Boogie Woogie
TTITLE1=黄土高原
TTITLE2=Ballet Mecanique
TTITLE3=G.T.II゜
TTITLE4=Milan,1909
TTITLE5=Variety Show
TTITLE6=大航海　Verso lo schermo
TTITLE7=Water is Life
TTITLE8=Parolibre
TTITLE9=G.T.
EXTD=YEAR: 1986
EXTT0=
EXTT1=
EXTT2=
EXTT3=
EXTT4=
EXTT5=
EXTT6=
EXTT7=
EXTT8=
EXTT9=
PLAYORDER=
